<?xml version="1.0" standalone="no"?>
<!DOCTYPE svg PUBLIC "-//W3C//DTD SVG 20010904//EN"
 "http://www.w3.org/TR/2001/REC-SVG-20010904/DTD/svg10.dtd">
<svg version="1.0" xmlns="http://www.w3.org/2000/svg"
 width="865.000000pt" height="865.000000pt" viewBox="0 0 865.000000 865.000000"
 preserveAspectRatio="xMidYMid meet">

<g transform="translate(0.000000,865.000000) scale(0.100000,-0.100000)"
fill="#000000" stroke="none">
<path d="M808 8451 c-31 -10 -72 -28 -92 -40 -54 -34 -123 -116 -140 -169 -15
-43 -16 -410 -14 -3832 l3 -3785 29 -53 c73 -132 241 -211 389 -183 69 13 -21
-34 860 447 405 222 739 404 742 404 3 0 5 -192 5 -427 0 -247 4 -443 10 -463
31 -112 199 -198 314 -160 20 6 339 177 709 379 369 202 704 383 742 403 60
29 570 310 2515 1386 184 102 454 251 600 332 146 80 330 182 409 226 177 97
196 118 196 214 0 106 2 105 -421 340 -203 112 -402 223 -442 246 l-74 42 259
142 c557 307 598 332 630 367 65 71 79 183 35 270 -37 71 148 -37 -1602 933
-558 309 -1037 576 -1065 592 -27 17 -428 238 -890 491 -1538 842 -2375 1301
-2905 1592 -289 159 -547 297 -575 307 -64 22 -154 22 -227 -1z"/>
</g>
</svg>
