<?xml version="1.0" standalone="no"?>
<!DOCTYPE svg PUBLIC "-//W3C//DTD SVG 20010904//EN"
 "http://www.w3.org/TR/2001/REC-SVG-20010904/DTD/svg10.dtd">
<svg version="1.0" xmlns="http://www.w3.org/2000/svg"
 width="865.000000pt" height="865.000000pt" viewBox="0 0 865.000000 865.000000"
 preserveAspectRatio="xMidYMid meet">

<g transform="translate(0.000000,865.000000) scale(0.100000,-0.100000)"
fill="#000000" stroke="none">
<path d="M3649 8591 c-25 -10 -68 -33 -95 -51 -57 -38 -3307 -3280 -3364
-3356 -78 -103 -128 -234 -151 -389 -17 -118 6 -275 58 -400 62 -149 37 -122
1721 -1808 884 -885 1640 -1635 1680 -1668 40 -32 94 -69 120 -81 50 -23 140
-34 195 -24 73 14 138 115 163 254 20 114 20 7169 0 7283 -23 128 -75 217
-143 245 -45 19 -129 17 -184 -5z"/>
<path d="M4818 7820 c-79 -43 -127 -140 -147 -299 -8 -58 -11 -1184 -11 -3600
0 -3679 -1 -3595 40 -3733 14 -47 65 -116 109 -145 27 -18 48 -23 102 -23 80
0 135 21 223 85 77 55 3322 3303 3366 3368 41 62 94 178 109 242 7 28 17 66
22 85 22 75 -2 317 -40 405 -30 71 -60 128 -94 180 -45 69 -3202 3236 -3327
3337 -98 80 -166 111 -250 115 -50 3 -73 -1 -102 -17z"/>
</g>
</svg>
