<?xml version="1.0" standalone="no"?>
<!DOCTYPE svg PUBLIC "-//W3C//DTD SVG 20010904//EN"
 "http://www.w3.org/TR/2001/REC-SVG-20010904/DTD/svg10.dtd">
<svg version="1.0" xmlns="http://www.w3.org/2000/svg"
 width="865.000000pt" height="865.000000pt" viewBox="0 0 865.000000 865.000000"
 preserveAspectRatio="xMidYMid meet">

<g transform="translate(0.000000,865.000000) scale(0.100000,-0.100000)"
fill="#000000" stroke="none">
<path d="M8000 7873 c-58 -10 -107 -32 -340 -156 -135 -71 -292 -154 -350
-185 -58 -30 -132 -69 -165 -87 -33 -17 -280 -148 -548 -291 -543 -288 -565
-302 -661 -447 -53 -80 -82 -141 -115 -242 -14 -45 -16 -293 -19 -2665 -1
-1695 1 -2638 7 -2680 21 -134 115 -260 238 -318 l58 -27 897 -3 c890 -2 898
-2 960 19 112 37 192 111 246 226 l27 58 0 3320 0 3320 -29 53 c-43 77 -125
119 -206 105z"/>
<path d="M5268 6446 c-39 -10 -479 -252 -1658 -907 -246 -137 -335 -223 -421
-405 -74 -157 -69 4 -67 -2136 l3 -1923 32 -66 c57 -115 163 -200 284 -228 60
-14 1718 -14 1778 0 121 28 227 113 284 228 l32 66 3 2585 c2 1911 0 2599 -8
2638 -19 90 -109 164 -195 161 -11 0 -41 -6 -67 -13z"/>
</g>
</svg>
