<?xml version="1.0" standalone="no"?>
<!DOCTYPE svg PUBLIC "-//W3C//DTD SVG 20010904//EN"
 "http://www.w3.org/TR/2001/REC-SVG-20010904/DTD/svg10.dtd">
<svg version="1.0" xmlns="http://www.w3.org/2000/svg"
 width="865.000000pt" height="865.000000pt" viewBox="0 0 865.000000 865.000000"
 preserveAspectRatio="xMidYMid meet">

<g transform="translate(0.000000,865.000000) scale(0.100000,-0.100000)"
fill="#000000" stroke="none">
<path d="M4230 8030 c-8 -5 -26 -10 -39 -10 -49 0 -148 -44 -236 -104 -49 -34
-173 -122 -275 -196 -102 -73 -243 -175 -315 -227 -178 -127 -401 -288 -575
-413 -174 -125 -397 -286 -575 -413 -71 -52 -213 -153 -315 -227 -102 -73
-246 -177 -320 -230 -74 -53 -218 -157 -320 -230 -102 -74 -243 -176 -315
-227 -71 -51 -209 -149 -305 -219 -96 -69 -226 -162 -287 -206 -62 -44 -123
-95 -136 -112 -76 -99 -87 -194 -35 -296 39 -76 26 -66 481 -393 259 -186 281
-206 243 -220 -24 -9 -628 -447 -664 -480 -18 -17 -41 -52 -53 -77 -11 -25
-25 -53 -30 -62 -19 -37 -4 -108 43 -193 25 -46 50 -66 378 -302 168 -121
1014 -730 1880 -1355 866 -624 1594 -1145 1617 -1157 71 -35 150 -51 263 -51
113 0 192 16 263 51 23 12 146 96 272 187 127 91 372 267 545 392 173 124 590
424 925 665 336 241 738 531 895 644 157 112 413 297 570 410 157 112 354 254
437 314 84 60 167 126 183 147 91 115 75 270 -37 371 -21 19 -179 135 -351
259 -171 123 -312 229 -312 235 0 5 26 28 58 51 31 22 113 81 182 130 494 357
481 345 522 459 18 50 19 62 8 103 -32 127 -41 136 -352 360 -71 51 -184 133
-253 182 -69 50 -182 131 -252 182 -71 50 -150 108 -178 128 -27 20 -107 78
-177 128 -71 51 -184 133 -253 182 -69 50 -182 131 -252 182 -71 50 -150 108
-178 128 -27 20 -107 78 -177 128 -71 51 -184 133 -253 182 -69 50 -182 131
-252 182 -71 50 -150 108 -178 128 -27 20 -107 78 -177 128 -71 51 -184 133
-253 182 -69 50 -182 131 -252 182 -71 50 -150 108 -178 128 -297 218 -327
235 -455 262 -69 15 -183 20 -200 8z"/>
</g>
</svg>
