<?xml version="1.0" standalone="no"?>
<!DOCTYPE svg PUBLIC "-//W3C//DTD SVG 20010904//EN"
 "http://www.w3.org/TR/2001/REC-SVG-20010904/DTD/svg10.dtd">
<svg version="1.0" xmlns="http://www.w3.org/2000/svg"
 width="865.000000pt" height="865.000000pt" viewBox="0 0 865.000000 865.000000"
 preserveAspectRatio="xMidYMid meet">

<g transform="translate(0.000000,865.000000) scale(0.100000,-0.100000)"
fill="#000000" stroke="none">
<path d="M4224 8341 c-34 -10 -83 -30 -110 -45 -31 -18 -225 -204 -539 -517
l-491 -489 -684 0 c-416 0 -702 -4 -728 -10 -139 -33 -245 -132 -297 -282 -13
-37 -15 -144 -15 -738 l0 -694 -503 -506 c-487 -488 -505 -507 -529 -570 -14
-36 -31 -81 -37 -101 -14 -44 -14 -136 -1 -144 6 -3 10 -15 10 -26 0 -11 14
-50 30 -87 29 -63 64 -100 530 -567 l500 -501 0 -684 0 -685 25 -68 c28 -79
48 -109 107 -163 60 -55 105 -81 173 -99 50 -13 159 -15 734 -15 l675 0 491
-489 c285 -284 509 -499 535 -514 80 -46 240 -81 263 -58 6 6 21 11 33 11 21
0 58 13 134 47 21 9 227 207 528 507 l492 491 718 5 717 5 57 28 c114 56 191
147 229 268 18 57 19 103 19 743 l0 683 498 499 c455 456 501 505 529 564 53
115 62 190 35 292 -27 103 -42 120 -556 636 l-501 502 -5 708 -5 707 -32 67
c-42 89 -106 156 -190 199 l-68 34 -712 5 -713 5 -487 486 c-309 308 -506 497
-537 514 -58 34 -166 65 -221 64 -22 -1 -67 -9 -101 -18z"/>
</g>
</svg>
